G04 EAGLE Gerber RS-274X export*
G75*
%MOMM*%
%FSLAX34Y34*%
%LPD*%
%INTop Copper*%
%IPPOS*%
%AMOC8*
5,1,8,0,0,1.08239X$1,22.5*%
G01*
%ADD10P,2.336880X8X22.500000*%
%ADD11C,1.524000*%
%ADD12P,1.732040X8X112.500000*%
%ADD13C,1.600200*%
%ADD14C,1.320800*%
%ADD15P,1.429621X8X22.500000*%
%ADD16P,3.409096X8X202.500000*%
%ADD17C,0.152400*%
%ADD18C,0.508000*%
%ADD19C,1.016000*%


D10*
X596900Y419100D03*
X673100Y419100D03*
D11*
X629920Y279400D02*
X614680Y279400D01*
X614680Y254000D02*
X629920Y254000D01*
X629920Y228600D02*
X614680Y228600D01*
X614680Y203200D02*
X629920Y203200D01*
X629920Y177800D02*
X614680Y177800D01*
X614680Y152400D02*
X629920Y152400D01*
X629920Y127000D02*
X614680Y127000D01*
X614680Y304800D02*
X629920Y304800D01*
D12*
X355600Y93980D03*
D13*
X355600Y58420D03*
D14*
X387096Y190500D02*
X400304Y190500D01*
X400304Y215900D02*
X387096Y215900D01*
X387096Y292100D02*
X400304Y292100D01*
X400304Y317500D02*
X387096Y317500D01*
X387096Y241300D02*
X400304Y241300D01*
X400304Y266700D02*
X387096Y266700D01*
X387096Y342900D02*
X400304Y342900D01*
X400304Y368300D02*
X387096Y368300D01*
X324104Y368300D02*
X310896Y368300D01*
X310896Y342900D02*
X324104Y342900D01*
X324104Y317500D02*
X310896Y317500D01*
X310896Y292100D02*
X324104Y292100D01*
X324104Y266700D02*
X310896Y266700D01*
X310896Y241300D02*
X324104Y241300D01*
X324104Y215900D02*
X310896Y215900D01*
X310896Y190500D02*
X324104Y190500D01*
D15*
X50800Y63500D03*
X152400Y63500D03*
X50800Y127000D03*
X152400Y127000D03*
X50800Y190500D03*
X152400Y190500D03*
X50800Y254000D03*
X152400Y254000D03*
X50800Y317500D03*
X152400Y317500D03*
X50800Y381000D03*
X152400Y381000D03*
X304800Y444500D03*
X406400Y444500D03*
X444500Y368300D03*
X546100Y368300D03*
X444500Y330200D03*
X546100Y330200D03*
X444500Y292100D03*
X546100Y292100D03*
X444500Y215900D03*
X546100Y215900D03*
X444500Y254000D03*
X546100Y254000D03*
D16*
X495300Y88900D03*
X495300Y38100D03*
D15*
X444500Y177800D03*
X546100Y177800D03*
X444500Y139700D03*
X546100Y139700D03*
X203200Y63500D03*
X228600Y63500D03*
X203200Y139700D03*
X228600Y139700D03*
X203200Y215900D03*
X228600Y215900D03*
X203200Y292100D03*
X228600Y292100D03*
X203200Y368300D03*
X228600Y368300D03*
X444500Y444500D03*
X469900Y444500D03*
X203200Y444500D03*
X228600Y444500D03*
D17*
X0Y0D02*
X720600Y0D01*
X720600Y498100D01*
X0Y498100D01*
X0Y0D01*
X393700Y215900D02*
X406400Y215900D01*
D18*
X431800Y177800D02*
X444500Y177800D01*
X431800Y177800D02*
X393700Y215900D01*
X228600Y406400D02*
X228600Y444500D01*
X228600Y406400D02*
X317500Y317500D01*
D19*
X50800Y381000D02*
X50800Y431800D01*
X101600Y482600D01*
X266700Y482600D01*
X304800Y444500D01*
X317500Y431800D01*
X317500Y368300D01*
X50800Y381000D02*
X50800Y317500D01*
X50800Y254000D01*
X50800Y190500D01*
X50800Y127000D01*
X50800Y63500D01*
X50800Y38100D01*
X76200Y12700D01*
X317500Y12700D01*
X355600Y50800D01*
X355600Y63500D01*
X469900Y63500D01*
X495300Y38100D01*
X533400Y38100D01*
X622300Y127000D01*
X685800Y406400D02*
X673100Y419100D01*
X685800Y406400D02*
X685800Y50800D01*
X609600Y50800D01*
X584200Y76200D01*
D18*
X609600Y304800D02*
X546100Y368300D01*
X609600Y304800D02*
X622300Y304800D01*
X596900Y279400D02*
X546100Y330200D01*
X596900Y279400D02*
X622300Y279400D01*
X584200Y254000D02*
X546100Y292100D01*
X584200Y254000D02*
X622300Y254000D01*
X571500Y228600D02*
X546100Y254000D01*
X571500Y228600D02*
X622300Y228600D01*
X558800Y203200D02*
X546100Y215900D01*
X558800Y203200D02*
X622300Y203200D01*
X622300Y177800D02*
X546100Y177800D01*
X546100Y139700D02*
X609600Y139700D01*
X622300Y152400D01*
X444500Y368300D02*
X419100Y368300D01*
X393700Y342900D01*
X431800Y317500D02*
X444500Y330200D01*
X431800Y317500D02*
X393700Y317500D01*
X393700Y292100D02*
X444500Y292100D01*
X444500Y254000D02*
X406400Y254000D01*
X393700Y266700D01*
X419100Y241300D02*
X444500Y215900D01*
X419100Y241300D02*
X393700Y241300D01*
X393700Y190500D02*
X444500Y139700D01*
X317500Y152400D02*
X317500Y190500D01*
X317500Y152400D02*
X228600Y63500D01*
X241300Y139700D02*
X317500Y215900D01*
X241300Y139700D02*
X228600Y139700D01*
X254000Y241300D02*
X317500Y241300D01*
X254000Y241300D02*
X228600Y215900D01*
X254000Y266700D02*
X317500Y266700D01*
X254000Y266700D02*
X228600Y292100D01*
X241300Y368300D02*
X317500Y292100D01*
X241300Y368300D02*
X228600Y368300D01*
X203200Y63500D02*
X152400Y63500D01*
X152400Y127000D02*
X165100Y139700D01*
X203200Y139700D01*
X177800Y190500D02*
X152400Y190500D01*
X177800Y190500D02*
X203200Y215900D01*
X152400Y254000D02*
X190500Y292100D01*
X203200Y292100D01*
X152400Y317500D02*
X203200Y368300D01*
X152400Y381000D02*
X203200Y431800D01*
X203200Y444500D01*
X406400Y444500D02*
X444500Y444500D01*
X469900Y444500D02*
X533400Y444500D01*
X571500Y444500D01*
X596900Y419100D01*
X533400Y444500D02*
X495300Y406400D01*
X368300Y406400D01*
X355600Y393700D01*
X355600Y355600D01*
X342900Y342900D01*
X317500Y342900D01*
X393700Y368300D02*
X393700Y393700D01*
X495300Y393700D01*
X495300Y88900D02*
X355600Y88900D01*
X495300Y88900D02*
X495300Y393700D01*
M02*
